<svg width="171" height="171" viewBox="0 0 171 171" fill="none" xmlns="http://www.w3.org/2000/svg">
<g filter="url(#filter0_i_15_532)">
<path d="M171 40.4036V130.538C171.005 135.849 169.963 141.11 167.934 146.019C165.905 150.928 162.928 155.389 159.174 159.146C155.42 162.904 150.962 165.885 146.055 167.919C141.148 169.953 135.889 171 130.577 171H40.4428C29.7217 170.995 19.4409 166.735 11.8581 159.156C4.27528 151.577 0.0104014 141.298 1.90116e-05 130.577V40.4428C-0.00513275 35.1319 1.03678 29.8722 3.06617 24.9644C5.09556 20.0566 8.0726 15.5971 11.827 11.8409C15.5814 8.08463 20.0395 5.10543 24.9463 3.07366C29.8531 1.04189 35.1124 -0.00257331 40.4232 4.76096e-06H130.557C135.866 -0.00256903 141.123 1.04046 146.028 3.06954C150.933 5.09861 155.391 8.074 159.146 11.8258C162.902 15.5776 165.882 20.0324 167.915 24.9358C169.949 29.8392 170.997 35.0951 171 40.4036V40.4036Z" fill="#A4A4A4"/>
</g>
<g style="mix-blend-mode:soft-light" opacity="0.4">
<path d="M85.9052 66.6565L81.2417 91.169L85.9052 94.892V66.6565Z" fill="black"/>
</g>
<path d="M86.2244 105.539H85.2182C72.2551 105.83 57.4374 112.607 53.5504 127.111C53.4613 127.352 53.4243 127.609 53.4417 127.865C53.4591 128.121 53.5306 128.37 53.6517 128.598C53.7727 128.825 53.9406 129.025 54.1446 129.185C54.3485 129.344 54.5842 129.46 54.8364 129.526C55.0885 129.591 55.3518 129.603 55.6092 129.563C55.8666 129.522 56.1126 129.429 56.3314 129.289C56.5502 129.15 56.737 128.967 56.8798 128.752C57.0227 128.538 57.1185 128.296 57.1611 128.043C60.5745 115.403 73.7546 109.481 85.2971 109.228C96.3068 109.015 110.73 114.359 115.307 128.689C115.548 129.027 115.891 129.282 116.288 129.415C116.685 129.548 117.115 129.554 117.515 129.43C117.915 129.307 118.265 129.061 118.514 128.729C118.763 128.397 118.897 127.995 118.898 127.582C114.696 114.476 101.93 105.539 86.2244 105.539Z" fill="black"/>
<path d="M125.578 78.8203C120.972 78.8203 116.555 76.9906 113.298 73.7336C110.041 70.4767 108.211 66.0593 108.211 61.4533V60.5733C108.211 46.6093 123.642 37.5738 133.499 38.8646C142.241 39.9793 142.945 45.5727 142.945 53.8846V61.4533C142.94 66.0578 141.109 70.4721 137.853 73.7279C134.597 76.9837 130.183 78.8151 125.578 78.8203Z" fill="black"/>
<path d="M120 51.6599C121.689 51.6599 123.057 50.2913 123.057 48.6032C123.057 46.915 121.689 45.5464 120 45.5464C118.312 45.5464 116.944 46.915 116.944 48.6032C116.944 50.2913 118.312 51.6599 120 51.6599Z" fill="white"/>
<path opacity="0.1" d="M125.663 63.4361C129.591 63.4361 132.776 60.2516 132.776 56.3233C132.776 52.3951 129.591 49.2106 125.663 49.2106C121.735 49.2106 118.55 52.3951 118.55 56.3233C118.55 60.2516 121.735 63.4361 125.663 63.4361Z" fill="white"/>
<path d="M44.0957 78.8203C48.701 78.8151 53.1159 76.9831 56.3704 73.7267C59.625 70.4704 61.4531 66.056 61.4531 61.4533V60.5733C61.4531 46.6093 46.033 37.5738 36.1704 38.8646C27.4037 39.9793 26.7188 45.5727 26.7188 53.8846V61.4533C26.7188 66.0593 28.5495 70.4767 31.8083 73.7336C35.0672 76.9906 39.4871 78.8203 44.0957 78.8203V78.8203Z" fill="black"/>
<path d="M38.5277 51.6599C40.2159 51.6599 41.5844 50.2913 41.5844 48.6032C41.5844 46.915 40.2159 45.5464 38.5277 45.5464C36.8395 45.5464 35.471 46.915 35.471 48.6032C35.471 50.2913 36.8395 51.6599 38.5277 51.6599Z" fill="white"/>
<path opacity="0.1" d="M44.1905 63.4361C48.1188 63.4361 51.3033 60.2516 51.3033 56.3233C51.3033 52.3951 48.1188 49.2106 44.1905 49.2106C40.2622 49.2106 37.0778 52.3951 37.0778 56.3233C37.0778 60.2516 40.2622 63.4361 44.1905 63.4361Z" fill="white"/>
<defs>
<filter id="filter0_i_15_532" x="0" y="0" width="171" height="171" filterUnits="userSpaceOnUse" color-interpolation-filters="sRGB">
<feFlood flood-opacity="0" result="BackgroundImageFix"/>
<feBlend mode="normal" in="SourceGraphic" in2="BackgroundImageFix" result="shape"/>
<feColorMatrix in="SourceAlpha" type="matrix" values="0 0 0 0 0 0 0 0 0 0 0 0 0 0 0 0 0 0 127 0" result="hardAlpha"/>
<feOffset dx="-6" dy="-6"/>
<feComposite in2="hardAlpha" operator="arithmetic" k2="-1" k3="1"/>
<feColorMatrix type="matrix" values="0 0 0 0 0 0 0 0 0 0 0 0 0 0 0 0 0 0 0.04 0"/>
<feBlend mode="normal" in2="shape" result="effect1_innerShadow_15_532"/>
</filter>
</defs>
</svg>
