<svg width="171" height="171" viewBox="0 0 171 171" fill="none" xmlns="http://www.w3.org/2000/svg">
<g filter="url(#filter0_i_9_447)">
<path d="M171 40.4036V130.538C171.005 135.849 169.963 141.11 167.934 146.019C165.905 150.928 162.928 155.389 159.174 159.146C155.42 162.904 150.962 165.885 146.055 167.919C141.148 169.953 135.889 171 130.577 171H40.4428C29.7217 170.995 19.4409 166.735 11.8581 159.156C4.27528 151.577 0.0104014 141.298 1.90116e-05 130.577V40.4428C-0.00513275 35.1319 1.03678 29.8722 3.06617 24.9644C5.09556 20.0566 8.0726 15.5971 11.827 11.8409C15.5814 8.08463 20.0395 5.10543 24.9463 3.07366C29.8531 1.04189 35.1124 -0.00257331 40.4232 4.76096e-06H130.557C135.866 -0.00256903 141.123 1.04046 146.028 3.06954C150.933 5.09861 155.391 8.074 159.146 11.8258C162.902 15.5776 165.882 20.0324 167.915 24.9358C169.949 29.8392 170.997 35.0951 171 40.4036V40.4036Z" fill="#8CCFEA"/>
</g>
<g style="mix-blend-mode:soft-light" opacity="0.4">
<path d="M85.9052 66.6565L81.2417 91.169L85.9052 94.892V66.6565Z" fill="black"/>
</g>
<g style="mix-blend-mode:soft-light" opacity="0.4">
<path d="M65.4609 121.57C71.4785 126.735 98.9178 127.09 105.539 121.57H65.4609Z" fill="black"/>
</g>
<path d="M118.135 114.704H53.3369C53.0426 114.8 52.7296 114.826 52.4235 114.778C52.1174 114.731 51.827 114.611 51.576 114.429C51.3251 114.248 51.1208 114.009 50.9799 113.733C50.8391 113.457 50.7656 113.152 50.7656 112.842C50.7656 112.532 50.8391 112.227 50.9799 111.951C51.1208 111.675 51.3251 111.437 51.576 111.255C51.827 111.073 52.1174 110.954 52.4235 110.906C52.7296 110.858 53.0426 110.884 53.3369 110.981H118.135C118.43 110.884 118.743 110.858 119.049 110.906C119.355 110.954 119.645 111.073 119.896 111.255C120.147 111.437 120.352 111.675 120.492 111.951C120.633 112.227 120.707 112.532 120.707 112.842C120.707 113.152 120.633 113.457 120.492 113.733C120.352 114.009 120.147 114.248 119.896 114.429C119.645 114.611 119.355 114.731 119.049 114.778C118.743 114.826 118.43 114.8 118.135 114.704V114.704Z" fill="black"/>
<g clip-path="url(#clip0_9_447)">
<path d="M142.945 56.1623C142.945 46.5415 135.17 38.7422 125.578 38.7422C115.986 38.7422 108.211 46.5415 108.211 56.1623V61.4002C108.211 71.021 115.986 78.8203 125.578 78.8203C135.17 78.8203 142.945 71.021 142.945 61.4002V56.1623Z" fill="black"/>
<path d="M119.948 51.4785C121.636 51.4785 123.005 50.11 123.005 48.4218C123.005 46.7336 121.636 45.3651 119.948 45.3651C118.26 45.3651 116.891 46.7336 116.891 48.4218C116.891 50.11 118.26 51.4785 119.948 51.4785Z" fill="white"/>
<path opacity="0.1" d="M125.611 63.2547C129.539 63.2547 132.724 60.0703 132.724 56.142C132.724 52.2137 129.539 49.0292 125.611 49.0292C121.682 49.0292 118.498 52.2137 118.498 56.142C118.498 60.0703 121.682 63.2547 125.611 63.2547Z" fill="white"/>
<path d="M61.4531 56.1623C61.4531 46.5415 53.6776 38.7422 44.0859 38.7422C34.4943 38.7422 26.7188 46.5415 26.7188 56.1623V61.4002C26.7188 71.021 34.4943 78.8203 44.0859 78.8203C53.6776 78.8203 61.4531 71.021 61.4531 61.4002V56.1623Z" fill="black"/>
<path d="M38.4558 51.4785C40.144 51.4785 41.5125 50.11 41.5125 48.4218C41.5125 46.7336 40.144 45.3651 38.4558 45.3651C36.7676 45.3651 35.3991 46.7336 35.3991 48.4218C35.3991 50.11 36.7676 51.4785 38.4558 51.4785Z" fill="white"/>
<path opacity="0.1" d="M44.1186 63.2547C48.0468 63.2547 51.2313 60.0703 51.2313 56.142C51.2313 52.2137 48.0468 49.0292 44.1186 49.0292C40.1903 49.0292 37.0058 52.2137 37.0058 56.142C37.0058 60.0703 40.1903 63.2547 44.1186 63.2547Z" fill="white"/>
</g>
<defs>
<filter id="filter0_i_9_447" x="0" y="0" width="171" height="171" filterUnits="userSpaceOnUse" color-interpolation-filters="sRGB">
<feFlood flood-opacity="0" result="BackgroundImageFix"/>
<feBlend mode="normal" in="SourceGraphic" in2="BackgroundImageFix" result="shape"/>
<feColorMatrix in="SourceAlpha" type="matrix" values="0 0 0 0 0 0 0 0 0 0 0 0 0 0 0 0 0 0 127 0" result="hardAlpha"/>
<feOffset dx="-6" dy="-6"/>
<feComposite in2="hardAlpha" operator="arithmetic" k2="-1" k3="1"/>
<feColorMatrix type="matrix" values="0 0 0 0 0 0 0 0 0 0 0 0 0 0 0 0 0 0 0.04 0"/>
<feBlend mode="normal" in2="shape" result="effect1_innerShadow_9_447"/>
</filter>
<clipPath id="clip0_9_447">
<rect width="116.841" height="40.0313" fill="white" transform="translate(26.7188 38.7422)"/>
</clipPath>
</defs>
</svg>
