<svg width="171" height="171" viewBox="0 0 171 171" fill="none" xmlns="http://www.w3.org/2000/svg">
<g filter="url(#filter0_i_15_528)">
<path d="M171 40.4036V130.538C171.005 135.849 169.963 141.11 167.934 146.019C165.905 150.928 162.928 155.389 159.174 159.146C155.42 162.904 150.962 165.885 146.055 167.919C141.148 169.953 135.889 171 130.577 171H40.4428C29.7217 170.995 19.4409 166.735 11.8581 159.156C4.27528 151.577 0.0104014 141.298 1.90116e-05 130.577V40.4428C-0.00513275 35.1319 1.03678 29.8722 3.06617 24.9644C5.09556 20.0566 8.0726 15.5971 11.827 11.8409C15.5814 8.08463 20.0395 5.10543 24.9463 3.07366C29.8531 1.04189 35.1124 -0.00257331 40.4232 4.76096e-06H130.557C135.866 -0.00256903 141.123 1.04046 146.028 3.06954C150.933 5.09861 155.391 8.074 159.146 11.8258C162.902 15.5776 165.882 20.0324 167.915 24.9358C169.949 29.8392 170.997 35.0951 171 40.4036V40.4036Z" fill="#A4A4A4"/>
</g>
<g style="mix-blend-mode:soft-light" opacity="0.4">
<path d="M85.9052 66.6565L81.2417 91.169L85.9052 94.892V66.6565Z" fill="black"/>
</g>
<path d="M86.2244 125.578H85.2182C72.2551 125.287 57.4374 118.511 53.5504 104.006C53.4613 103.765 53.4243 103.508 53.4417 103.252C53.4591 102.996 53.5306 102.747 53.6517 102.52C53.7727 102.292 53.9406 102.092 54.1446 101.933C54.3485 101.773 54.5842 101.657 54.8364 101.592C55.0885 101.527 55.3518 101.514 55.6092 101.555C55.8666 101.595 56.1126 101.688 56.3314 101.828C56.5502 101.967 56.737 102.15 56.8798 102.365C57.0227 102.58 57.1185 102.821 57.1611 103.074C60.5745 115.715 73.7546 121.637 85.2971 121.889C96.3068 122.103 110.73 116.758 115.307 102.428C115.548 102.09 115.891 101.836 116.288 101.702C116.685 101.569 117.115 101.563 117.515 101.687C117.915 101.81 118.265 102.056 118.514 102.388C118.763 102.721 118.897 103.122 118.898 103.535C114.696 116.641 101.93 125.578 86.2244 125.578Z" fill="black"/>
<path d="M130.177 73.3688H121.359C108.368 73.3688 108.368 73.4668 108.368 60.3777V55.969C108.373 51.3559 110.208 46.9332 113.47 43.6712C116.732 40.4093 121.155 38.5744 125.768 38.5692V38.5692C130.381 38.5744 134.804 40.4093 138.066 43.6712C141.328 46.9332 143.163 51.3559 143.168 55.969V60.4757C143.129 73.4668 143.129 73.3688 130.177 73.3688Z" fill="black"/>
<path d="M119.926 51.4547C121.611 51.4547 122.977 50.0887 122.977 48.4037C122.977 46.7187 121.611 45.3527 119.926 45.3527C118.241 45.3527 116.875 46.7187 116.875 48.4037C116.875 50.0887 118.241 51.4547 119.926 51.4547Z" fill="white"/>
<path opacity="0.1" d="M125.578 63.2088C129.499 63.2088 132.677 60.0303 132.677 56.1094C132.677 52.1885 129.499 49.01 125.578 49.01C121.657 49.01 118.479 52.1885 118.479 56.1094C118.479 60.0303 121.657 63.2088 125.578 63.2088Z" fill="white"/>
<path d="M48.6846 73.3688H39.8672C26.8761 73.3688 26.8761 73.4668 26.8761 60.3777V55.969C26.8813 51.3559 28.7161 46.9332 31.9781 43.6712C35.2401 40.4093 39.6628 38.5744 44.2759 38.5692V38.5692C48.889 38.5744 53.3117 40.4093 56.5737 43.6712C59.8356 46.9332 61.6705 51.3559 61.6757 55.969V60.4757C61.6365 73.4668 61.6365 73.3688 48.6846 73.3688Z" fill="black"/>
<path d="M38.5734 51.4786C40.2616 51.4786 41.6302 50.11 41.6302 48.4218C41.6302 46.7337 40.2616 45.3651 38.5734 45.3651C36.8853 45.3651 35.5167 46.7337 35.5167 48.4218C35.5167 50.11 36.8853 51.4786 38.5734 51.4786Z" fill="white"/>
<path opacity="0.1" d="M44.2362 63.2547C48.1644 63.2547 51.3489 60.0703 51.3489 56.142C51.3489 52.2137 48.1644 49.0292 44.2362 49.0292C40.3079 49.0292 37.1234 52.2137 37.1234 56.142C37.1234 60.0703 40.3079 63.2547 44.2362 63.2547Z" fill="white"/>
<defs>
<filter id="filter0_i_15_528" x="0" y="0" width="171" height="171" filterUnits="userSpaceOnUse" color-interpolation-filters="sRGB">
<feFlood flood-opacity="0" result="BackgroundImageFix"/>
<feBlend mode="normal" in="SourceGraphic" in2="BackgroundImageFix" result="shape"/>
<feColorMatrix in="SourceAlpha" type="matrix" values="0 0 0 0 0 0 0 0 0 0 0 0 0 0 0 0 0 0 127 0" result="hardAlpha"/>
<feOffset dx="-6" dy="-6"/>
<feComposite in2="hardAlpha" operator="arithmetic" k2="-1" k3="1"/>
<feColorMatrix type="matrix" values="0 0 0 0 0 0 0 0 0 0 0 0 0 0 0 0 0 0 0.04 0"/>
<feBlend mode="normal" in2="shape" result="effect1_innerShadow_15_528"/>
</filter>
</defs>
</svg>
