<svg width="171" height="171" viewBox="0 0 171 171" fill="none" xmlns="http://www.w3.org/2000/svg">
<g filter="url(#filter0_i_9_435)">
<path d="M171 40.4036V130.538C171.005 135.849 169.963 141.11 167.934 146.019C165.905 150.928 162.928 155.389 159.174 159.146C155.42 162.904 150.962 165.885 146.055 167.919C141.148 169.953 135.889 171 130.577 171H40.4428C29.7217 170.995 19.4409 166.735 11.8581 159.156C4.27528 151.577 0.0104014 141.298 1.90116e-05 130.577V40.4428C-0.00513275 35.1319 1.03678 29.8722 3.06617 24.9644C5.09556 20.0566 8.0726 15.5971 11.827 11.8409C15.5814 8.08463 20.0395 5.10543 24.9463 3.07366C29.8531 1.04189 35.1124 -0.00257331 40.4232 4.76096e-06H130.557C135.866 -0.00256903 141.123 1.04046 146.028 3.06954C150.933 5.09861 155.391 8.074 159.146 11.8258C162.902 15.5776 165.882 20.0324 167.915 24.9358C169.949 29.8392 170.997 35.0951 171 40.4036V40.4036Z" fill="#FCBC34"/>
</g>
<g style="mix-blend-mode:soft-light" opacity="0.4">
<path d="M85.9052 66.6565L81.2417 91.169L85.9052 94.892V66.6565Z" fill="black"/>
</g>
<g clip-path="url(#clip0_9_435)">
<path d="M85.1897 130.922C63.1578 130.922 38.479 118.622 36.0851 91.6893C36.0231 91.1977 36.1575 90.7013 36.4586 90.3096C36.7598 89.9178 37.203 89.6626 37.6908 89.6002C38.1786 89.5377 38.671 89.6732 39.0597 89.9767C39.4484 90.2802 39.7016 90.7269 39.7636 91.2185C41.9045 115.896 64.7927 127.136 85.1897 127.136C114.014 127.136 128.436 109.069 129.954 91.2185C129.989 90.7326 130.213 90.2804 130.578 89.9606C130.943 89.6408 131.418 89.4795 131.9 89.5119C132.372 89.5741 132.804 89.808 133.116 90.1693C133.428 90.5307 133.598 90.9946 133.594 91.4735C131.375 118.681 106.988 130.902 85.2286 130.922H85.1897Z" fill="black"/>
</g>
<g clip-path="url(#clip1_9_435)">
<path d="M110.482 64.125C110.253 64.1225 110.027 64.0829 109.81 64.0076C109.525 63.9183 109.26 63.7724 109.031 63.5783C108.801 63.3842 108.611 63.1457 108.472 62.8765C108.333 62.6074 108.247 62.3128 108.22 62.0098C108.193 61.7068 108.225 61.4013 108.314 61.1109C109.401 57.3135 111.678 53.9843 114.797 51.6335C117.915 49.2826 121.704 48.0398 125.581 48.0955V48.0955C129.454 48.0593 133.234 49.3095 136.349 51.6575C139.464 54.0054 141.745 57.3236 142.849 61.1109C143.022 61.7001 142.96 62.3353 142.676 62.8781C142.392 63.4208 141.909 63.8268 141.333 64.0076C141.048 64.101 140.748 64.1356 140.45 64.1092C140.153 64.0827 139.863 63.9959 139.598 63.8537C139.334 63.7114 139.1 63.5168 138.91 63.281C138.72 63.0453 138.579 62.7733 138.493 62.481C137.661 59.6336 135.945 57.1394 133.602 55.3742C131.259 53.6091 128.417 52.6688 125.505 52.695C122.605 52.6858 119.781 53.634 117.453 55.3978C115.126 57.1617 113.421 59.6465 112.592 62.481C112.45 62.9438 112.171 63.3503 111.793 63.6446C111.415 63.939 110.957 64.1068 110.482 64.125V64.125Z" fill="black"/>
<path d="M29.0067 64.1249C28.7779 64.127 28.5505 64.0872 28.3354 64.0075C28.0486 63.9202 27.7816 63.7758 27.5499 63.5826C27.3182 63.3894 27.1263 63.1512 26.9854 62.8818C26.8445 62.6124 26.7573 62.3172 26.7289 62.0132C26.7006 61.7092 26.7316 61.4025 26.8201 61.1108C27.9121 57.3167 30.1901 53.9911 33.3068 51.6412C36.4234 49.2913 40.2077 48.0459 44.0826 48.0952V48.0952C47.956 48.0524 51.7373 49.3002 54.8527 51.6492C57.9681 53.9982 60.2476 57.3201 61.3451 61.1108C61.4367 61.4011 61.4706 61.7072 61.4447 62.0111C61.4188 62.3149 61.3337 62.6105 61.1943 62.8803C61.0549 63.1501 60.8641 63.3888 60.6331 63.5824C60.4021 63.776 60.1355 63.9205 59.849 64.0075C59.2717 64.1913 58.6464 64.1338 58.1105 63.8476C57.5747 63.5613 57.1721 63.0698 56.9911 62.4808C56.1602 59.6367 54.4467 57.1448 52.1084 55.3799C49.7701 53.6151 46.9334 52.6727 44.0251 52.6947V52.6947C41.1233 52.6812 38.2953 53.6275 35.9647 55.3917C33.6342 57.1559 31.9265 59.6432 31.0974 62.4808C30.9587 62.9421 30.6831 63.348 30.3086 63.6425C29.934 63.937 29.4791 64.1056 29.0067 64.1249V64.1249Z" fill="black"/>
</g>
<defs>
<filter id="filter0_i_9_435" x="0" y="0" width="171" height="171" filterUnits="userSpaceOnUse" color-interpolation-filters="sRGB">
<feFlood flood-opacity="0" result="BackgroundImageFix"/>
<feBlend mode="normal" in="SourceGraphic" in2="BackgroundImageFix" result="shape"/>
<feColorMatrix in="SourceAlpha" type="matrix" values="0 0 0 0 0 0 0 0 0 0 0 0 0 0 0 0 0 0 127 0" result="hardAlpha"/>
<feOffset dx="-6" dy="-6"/>
<feComposite in2="hardAlpha" operator="arithmetic" k2="-1" k3="1"/>
<feColorMatrix type="matrix" values="0 0 0 0 0 0 0 0 0 0 0 0 0 0 0 0 0 0 0.04 0"/>
<feBlend mode="normal" in2="shape" result="effect1_innerShadow_9_435"/>
</filter>
<clipPath id="clip0_9_435">
<rect width="106.875" height="66.7969" fill="white" transform="translate(30.7266 89.5078)"/>
</clipPath>
<clipPath id="clip1_9_435">
<rect width="116.841" height="40.0313" fill="white" transform="translate(26.7188 38.7422)"/>
</clipPath>
</defs>
</svg>
